<mxfile host="app.diagrams.net" agent="Mozilla/5.0 (Windows NT 10.0; Win64; x64) AppleWebKit/537.36 (KHTML, like Gecko) Chrome/132.0.0.0 Safari/537.36 Edg/132.0.0.0" version="26.0.10">
  <diagram id="C5RBs43oDa-KdzZeNtuy" name="Page-1">
    <mxGraphModel dx="1307" dy="1312" grid="1" gridSize="10" guides="1" tooltips="1" connect="1" arrows="1" fold="1" page="1" pageScale="1" pageWidth="827" pageHeight="1169" math="0" shadow="0">
      <root>
        <mxCell id="WIyWlLk6GJQsqaUBKTNV-0" />
        <mxCell id="WIyWlLk6GJQsqaUBKTNV-1" parent="WIyWlLk6GJQsqaUBKTNV-0" />
        <mxCell id="l13OxhlufzNVswaTB5rj-4" value="Develop an inventory tracking application to manage item information and availability." style="text;html=1;align=left;verticalAlign=middle;resizable=0;points=[];autosize=1;strokeColor=none;fillColor=none;" vertex="1" parent="WIyWlLk6GJQsqaUBKTNV-1">
          <mxGeometry x="50" y="100" width="480" height="30" as="geometry" />
        </mxCell>
        <mxCell id="l13OxhlufzNVswaTB5rj-7" value="&lt;h1&gt;Inventory Management System&lt;/h1&gt;" style="text;html=1;align=left;verticalAlign=middle;resizable=0;points=[];autosize=1;strokeColor=none;fillColor=none;spacing=0;" vertex="1" parent="WIyWlLk6GJQsqaUBKTNV-1">
          <mxGeometry x="20" width="370" height="70" as="geometry" />
        </mxCell>
        <mxCell id="l13OxhlufzNVswaTB5rj-8" value="&lt;h2&gt;Main Goal:&lt;/h2&gt;" style="text;html=1;align=left;verticalAlign=middle;resizable=0;points=[];autosize=1;strokeColor=none;fillColor=none;" vertex="1" parent="WIyWlLk6GJQsqaUBKTNV-1">
          <mxGeometry x="20" y="50" width="120" height="60" as="geometry" />
        </mxCell>
        <mxCell id="l13OxhlufzNVswaTB5rj-9" value="&lt;h2&gt;Requirements and Objectives:&lt;/h2&gt;" style="text;html=1;align=left;verticalAlign=middle;resizable=0;points=[];autosize=1;strokeColor=none;fillColor=none;" vertex="1" parent="WIyWlLk6GJQsqaUBKTNV-1">
          <mxGeometry x="20" y="120" width="280" height="60" as="geometry" />
        </mxCell>
        <mxCell id="l13OxhlufzNVswaTB5rj-10" value="&lt;h3&gt;Inventory Tracking:&lt;/h3&gt;" style="text;html=1;align=left;verticalAlign=middle;resizable=0;points=[];autosize=1;strokeColor=none;fillColor=none;" vertex="1" parent="WIyWlLk6GJQsqaUBKTNV-1">
          <mxGeometry x="50" y="160" width="150" height="60" as="geometry" />
        </mxCell>
        <mxCell id="l13OxhlufzNVswaTB5rj-11" value="&lt;ul&gt;&lt;li&gt;The system must enable users to add, update, and remove items.&lt;/li&gt;&lt;li style=&quot;text-align: left;&quot;&gt;Items must have name, price and quantity information.&lt;/li&gt;&lt;li style=&quot;text-align: left;&quot;&gt;The system must be able to handle invalid or bad inputs.&lt;/li&gt;&lt;/ul&gt;" style="text;html=1;align=center;verticalAlign=middle;resizable=0;points=[];autosize=1;strokeColor=none;fillColor=none;" vertex="1" parent="WIyWlLk6GJQsqaUBKTNV-1">
          <mxGeometry x="50" y="195" width="410" height="80" as="geometry" />
        </mxCell>
        <mxCell id="l13OxhlufzNVswaTB5rj-14" value="&lt;h3&gt;Inventory Display:&lt;/h3&gt;" style="text;html=1;align=left;verticalAlign=middle;resizable=0;points=[];autosize=1;strokeColor=none;fillColor=none;" vertex="1" parent="WIyWlLk6GJQsqaUBKTNV-1">
          <mxGeometry x="50" y="260" width="150" height="60" as="geometry" />
        </mxCell>
        <mxCell id="l13OxhlufzNVswaTB5rj-15" value="&lt;ul&gt;&lt;li&gt;The system must enable users to view all items and their stock levels.&lt;/li&gt;&lt;li&gt;The item information must be properly formatted and easy to read.&lt;/li&gt;&lt;/ul&gt;" style="text;html=1;align=left;verticalAlign=middle;resizable=0;points=[];autosize=1;strokeColor=none;fillColor=none;" vertex="1" parent="WIyWlLk6GJQsqaUBKTNV-1">
          <mxGeometry x="60" y="290" width="430" height="70" as="geometry" />
        </mxCell>
        <mxCell id="l13OxhlufzNVswaTB5rj-16" value="&lt;h3&gt;&lt;br&gt;&lt;/h3&gt;" style="text;html=1;align=left;verticalAlign=middle;resizable=0;points=[];autosize=1;strokeColor=none;fillColor=none;" vertex="1" parent="WIyWlLk6GJQsqaUBKTNV-1">
          <mxGeometry x="50" y="340" width="20" height="60" as="geometry" />
        </mxCell>
        <mxCell id="l13OxhlufzNVswaTB5rj-18" style="edgeStyle=orthogonalEdgeStyle;rounded=0;orthogonalLoop=1;jettySize=auto;html=1;" edge="1" parent="WIyWlLk6GJQsqaUBKTNV-1" source="l13OxhlufzNVswaTB5rj-17" target="l13OxhlufzNVswaTB5rj-19">
          <mxGeometry relative="1" as="geometry">
            <mxPoint x="250" y="430" as="targetPoint" />
          </mxGeometry>
        </mxCell>
        <mxCell id="l13OxhlufzNVswaTB5rj-17" value="&lt;font style=&quot;font-size: 20px;&quot;&gt;Start&lt;/font&gt;" style="ellipse;whiteSpace=wrap;html=1;" vertex="1" parent="WIyWlLk6GJQsqaUBKTNV-1">
          <mxGeometry x="20" y="390" width="120" height="80" as="geometry" />
        </mxCell>
        <mxCell id="l13OxhlufzNVswaTB5rj-20" style="edgeStyle=orthogonalEdgeStyle;rounded=0;orthogonalLoop=1;jettySize=auto;html=1;exitX=0.5;exitY=1;exitDx=0;exitDy=0;" edge="1" parent="WIyWlLk6GJQsqaUBKTNV-1" source="l13OxhlufzNVswaTB5rj-19" target="l13OxhlufzNVswaTB5rj-21">
          <mxGeometry relative="1" as="geometry">
            <mxPoint x="325.0588235294117" y="550" as="targetPoint" />
          </mxGeometry>
        </mxCell>
        <mxCell id="l13OxhlufzNVswaTB5rj-19" value="&lt;span style=&quot;font-size: 20px;&quot;&gt;Display Menu Options&lt;/span&gt;" style="rounded=0;whiteSpace=wrap;html=1;" vertex="1" parent="WIyWlLk6GJQsqaUBKTNV-1">
          <mxGeometry x="355" y="400" width="170" height="60" as="geometry" />
        </mxCell>
        <mxCell id="l13OxhlufzNVswaTB5rj-22" style="edgeStyle=orthogonalEdgeStyle;rounded=0;orthogonalLoop=1;jettySize=auto;html=1;exitX=0;exitY=0.5;exitDx=0;exitDy=0;" edge="1" parent="WIyWlLk6GJQsqaUBKTNV-1" source="l13OxhlufzNVswaTB5rj-21" target="l13OxhlufzNVswaTB5rj-23">
          <mxGeometry relative="1" as="geometry">
            <mxPoint x="200" y="575.1764705882354" as="targetPoint" />
          </mxGeometry>
        </mxCell>
        <mxCell id="l13OxhlufzNVswaTB5rj-24" style="edgeStyle=orthogonalEdgeStyle;rounded=0;orthogonalLoop=1;jettySize=auto;html=1;exitX=0;exitY=1;exitDx=0;exitDy=0;" edge="1" parent="WIyWlLk6GJQsqaUBKTNV-1" source="l13OxhlufzNVswaTB5rj-21" target="l13OxhlufzNVswaTB5rj-25">
          <mxGeometry relative="1" as="geometry">
            <mxPoint x="270" y="680" as="targetPoint" />
          </mxGeometry>
        </mxCell>
        <mxCell id="l13OxhlufzNVswaTB5rj-28" style="edgeStyle=orthogonalEdgeStyle;rounded=0;orthogonalLoop=1;jettySize=auto;html=1;exitX=1;exitY=1;exitDx=0;exitDy=0;" edge="1" parent="WIyWlLk6GJQsqaUBKTNV-1" source="l13OxhlufzNVswaTB5rj-21" target="l13OxhlufzNVswaTB5rj-29">
          <mxGeometry relative="1" as="geometry">
            <mxPoint x="470" y="760" as="targetPoint" />
          </mxGeometry>
        </mxCell>
        <mxCell id="l13OxhlufzNVswaTB5rj-30" style="edgeStyle=orthogonalEdgeStyle;rounded=0;orthogonalLoop=1;jettySize=auto;html=1;exitX=1;exitY=0.5;exitDx=0;exitDy=0;" edge="1" parent="WIyWlLk6GJQsqaUBKTNV-1" source="l13OxhlufzNVswaTB5rj-21" target="l13OxhlufzNVswaTB5rj-31">
          <mxGeometry relative="1" as="geometry">
            <mxPoint x="640" y="690" as="targetPoint" />
          </mxGeometry>
        </mxCell>
        <mxCell id="l13OxhlufzNVswaTB5rj-33" style="edgeStyle=orthogonalEdgeStyle;rounded=0;orthogonalLoop=1;jettySize=auto;html=1;exitX=1;exitY=0;exitDx=0;exitDy=0;" edge="1" parent="WIyWlLk6GJQsqaUBKTNV-1" source="l13OxhlufzNVswaTB5rj-21" target="l13OxhlufzNVswaTB5rj-34">
          <mxGeometry relative="1" as="geometry">
            <mxPoint x="610" y="810" as="targetPoint" />
          </mxGeometry>
        </mxCell>
        <mxCell id="l13OxhlufzNVswaTB5rj-55" style="edgeStyle=orthogonalEdgeStyle;rounded=0;orthogonalLoop=1;jettySize=auto;html=1;entryX=0.5;entryY=0;entryDx=0;entryDy=0;" edge="1" parent="WIyWlLk6GJQsqaUBKTNV-1" source="l13OxhlufzNVswaTB5rj-21" target="l13OxhlufzNVswaTB5rj-27">
          <mxGeometry relative="1" as="geometry" />
        </mxCell>
        <mxCell id="l13OxhlufzNVswaTB5rj-21" value="&lt;span style=&quot;font-size: 20px;&quot;&gt;Select Option&lt;/span&gt;" style="rhombus;whiteSpace=wrap;html=1;" vertex="1" parent="WIyWlLk6GJQsqaUBKTNV-1">
          <mxGeometry x="382.53" y="520" width="114.94" height="110" as="geometry" />
        </mxCell>
        <mxCell id="l13OxhlufzNVswaTB5rj-49" style="edgeStyle=orthogonalEdgeStyle;rounded=0;orthogonalLoop=1;jettySize=auto;html=1;entryX=0;entryY=0.5;entryDx=0;entryDy=0;exitX=0.5;exitY=1;exitDx=0;exitDy=0;" edge="1" parent="WIyWlLk6GJQsqaUBKTNV-1" source="l13OxhlufzNVswaTB5rj-23" target="l13OxhlufzNVswaTB5rj-39">
          <mxGeometry relative="1" as="geometry" />
        </mxCell>
        <mxCell id="l13OxhlufzNVswaTB5rj-23" value="&lt;span style=&quot;font-size: 20px;&quot;&gt;Add Item&lt;/span&gt;" style="rounded=0;whiteSpace=wrap;html=1;" vertex="1" parent="WIyWlLk6GJQsqaUBKTNV-1">
          <mxGeometry x="100" y="659.9964705882353" width="120" height="60" as="geometry" />
        </mxCell>
        <mxCell id="l13OxhlufzNVswaTB5rj-48" style="edgeStyle=orthogonalEdgeStyle;rounded=0;orthogonalLoop=1;jettySize=auto;html=1;entryX=0;entryY=0.25;entryDx=0;entryDy=0;exitX=0.5;exitY=1;exitDx=0;exitDy=0;" edge="1" parent="WIyWlLk6GJQsqaUBKTNV-1" source="l13OxhlufzNVswaTB5rj-25" target="l13OxhlufzNVswaTB5rj-39">
          <mxGeometry relative="1" as="geometry">
            <mxPoint x="150" y="900" as="sourcePoint" />
          </mxGeometry>
        </mxCell>
        <mxCell id="l13OxhlufzNVswaTB5rj-54" style="edgeStyle=orthogonalEdgeStyle;rounded=0;orthogonalLoop=1;jettySize=auto;html=1;entryX=0.5;entryY=0;entryDx=0;entryDy=0;" edge="1" parent="WIyWlLk6GJQsqaUBKTNV-1" source="l13OxhlufzNVswaTB5rj-27" target="l13OxhlufzNVswaTB5rj-39">
          <mxGeometry relative="1" as="geometry" />
        </mxCell>
        <mxCell id="l13OxhlufzNVswaTB5rj-27" value="&lt;span style=&quot;font-size: 20px;&quot;&gt;Remove Item&lt;/span&gt;" style="rounded=0;whiteSpace=wrap;html=1;" vertex="1" parent="WIyWlLk6GJQsqaUBKTNV-1">
          <mxGeometry x="379.9988235294117" y="660" width="120" height="60" as="geometry" />
        </mxCell>
        <mxCell id="l13OxhlufzNVswaTB5rj-47" style="edgeStyle=orthogonalEdgeStyle;rounded=0;orthogonalLoop=1;jettySize=auto;html=1;entryX=1;entryY=0.25;entryDx=0;entryDy=0;exitX=0.5;exitY=1;exitDx=0;exitDy=0;" edge="1" parent="WIyWlLk6GJQsqaUBKTNV-1" source="l13OxhlufzNVswaTB5rj-29" target="l13OxhlufzNVswaTB5rj-39">
          <mxGeometry relative="1" as="geometry" />
        </mxCell>
        <mxCell id="l13OxhlufzNVswaTB5rj-29" value="&lt;span style=&quot;font-size: 20px;&quot;&gt;Update Item&lt;/span&gt;" style="rounded=0;whiteSpace=wrap;html=1;" vertex="1" parent="WIyWlLk6GJQsqaUBKTNV-1">
          <mxGeometry x="520" y="660" width="120" height="60" as="geometry" />
        </mxCell>
        <mxCell id="l13OxhlufzNVswaTB5rj-51" style="edgeStyle=orthogonalEdgeStyle;rounded=0;orthogonalLoop=1;jettySize=auto;html=1;entryX=1;entryY=0.5;entryDx=0;entryDy=0;exitX=0.5;exitY=1;exitDx=0;exitDy=0;" edge="1" parent="WIyWlLk6GJQsqaUBKTNV-1" source="l13OxhlufzNVswaTB5rj-31" target="l13OxhlufzNVswaTB5rj-39">
          <mxGeometry relative="1" as="geometry" />
        </mxCell>
        <mxCell id="l13OxhlufzNVswaTB5rj-31" value="&lt;span style=&quot;font-size: 20px;&quot;&gt;View Items&lt;/span&gt;" style="rounded=0;whiteSpace=wrap;html=1;" vertex="1" parent="WIyWlLk6GJQsqaUBKTNV-1">
          <mxGeometry x="660" y="660" width="120" height="60" as="geometry" />
        </mxCell>
        <mxCell id="l13OxhlufzNVswaTB5rj-36" style="edgeStyle=orthogonalEdgeStyle;rounded=0;orthogonalLoop=1;jettySize=auto;html=1;exitX=0.5;exitY=1;exitDx=0;exitDy=0;" edge="1" parent="WIyWlLk6GJQsqaUBKTNV-1" source="l13OxhlufzNVswaTB5rj-34" target="l13OxhlufzNVswaTB5rj-37">
          <mxGeometry relative="1" as="geometry">
            <mxPoint x="749.7647058823529" y="1040" as="targetPoint" />
          </mxGeometry>
        </mxCell>
        <mxCell id="l13OxhlufzNVswaTB5rj-34" value="&lt;span style=&quot;font-size: 20px;&quot;&gt;Exit&lt;/span&gt;" style="rounded=0;whiteSpace=wrap;html=1;" vertex="1" parent="WIyWlLk6GJQsqaUBKTNV-1">
          <mxGeometry x="20" y="830" width="120" height="60" as="geometry" />
        </mxCell>
        <mxCell id="l13OxhlufzNVswaTB5rj-37" value="&lt;span style=&quot;font-size: 20px;&quot;&gt;End&lt;/span&gt;" style="ellipse;whiteSpace=wrap;html=1;" vertex="1" parent="WIyWlLk6GJQsqaUBKTNV-1">
          <mxGeometry x="20.004705882352937" y="960" width="120" height="80" as="geometry" />
        </mxCell>
        <mxCell id="l13OxhlufzNVswaTB5rj-52" style="edgeStyle=orthogonalEdgeStyle;rounded=0;orthogonalLoop=1;jettySize=auto;html=1;exitX=0.5;exitY=1;exitDx=0;exitDy=0;entryX=1;entryY=0.5;entryDx=0;entryDy=0;" edge="1" parent="WIyWlLk6GJQsqaUBKTNV-1" source="l13OxhlufzNVswaTB5rj-39" target="l13OxhlufzNVswaTB5rj-19">
          <mxGeometry relative="1" as="geometry">
            <Array as="points">
              <mxPoint x="440" y="900" />
              <mxPoint x="800" y="900" />
              <mxPoint x="800" y="430" />
            </Array>
          </mxGeometry>
        </mxCell>
        <mxCell id="l13OxhlufzNVswaTB5rj-39" value="&lt;span style=&quot;font-size: 20px;&quot;&gt;Display Items&lt;/span&gt;" style="rounded=0;whiteSpace=wrap;html=1;" vertex="1" parent="WIyWlLk6GJQsqaUBKTNV-1">
          <mxGeometry x="380" y="780" width="120" height="60" as="geometry" />
        </mxCell>
        <mxCell id="l13OxhlufzNVswaTB5rj-25" value="&lt;span style=&quot;font-size: 20px;&quot;&gt;Sell Item&lt;/span&gt;" style="rounded=0;whiteSpace=wrap;html=1;" vertex="1" parent="WIyWlLk6GJQsqaUBKTNV-1">
          <mxGeometry x="240" y="660" width="120" height="60" as="geometry" />
        </mxCell>
      </root>
    </mxGraphModel>
  </diagram>
</mxfile>
